<svg width="23" height="23" viewBox="0 0 23 23" fill="none" xmlns="http://www.w3.org/2000/svg">
<path d="M21.5 9.67969H1.5M15.9444 1.67969V5.67969M7.05556 1.67969V5.67969M6.83333 21.6797H16.1667C18.0335 21.6797 18.9669 21.6797 19.68 21.3527C20.3072 21.0651 20.8171 20.6061 21.1367 20.0417C21.5 19.3999 21.5 18.5598 21.5 16.8797V8.47969C21.5 6.79953 21.5 5.95945 21.1367 5.31772C20.8171 4.75323 20.3072 4.29429 19.68 4.00667C18.9669 3.67969 18.0335 3.67969 16.1667 3.67969H6.83333C4.96649 3.67969 4.03307 3.67969 3.32003 4.00667C2.69282 4.29429 2.18289 4.75323 1.86331 5.31772C1.5 5.95945 1.5 6.79953 1.5 8.47969V16.8797C1.5 18.5598 1.5 19.3999 1.86331 20.0417C2.18289 20.6061 2.69282 21.0651 3.32003 21.3527C4.03307 21.6797 4.96649 21.6797 6.83333 21.6797Z" stroke="#F4E3CF" stroke-width="1.66667" stroke-linecap="round" stroke-linejoin="round"/>
</svg>
