<svg width="20" height="23" viewBox="0 0 20 23" fill="none" xmlns="http://www.w3.org/2000/svg">
<path d="M19 9.16016H1M14 1.16016V5.16016M6 1.16016V5.16016M7 15.1602L9 17.1602L13.5 12.6602M5.8 21.1602H14.2C15.8802 21.1602 16.7202 21.1602 17.362 20.8332C17.9265 20.5456 18.3854 20.0866 18.673 19.5221C19 18.8804 19 18.0403 19 16.3602V7.96016C19 6.28 19 5.43992 18.673 4.79818C18.3854 4.2337 17.9265 3.77476 17.362 3.48714C16.7202 3.16016 15.8802 3.16016 14.2 3.16016H5.8C4.11984 3.16016 3.27976 3.16016 2.63803 3.48714C2.07354 3.77476 1.6146 4.2337 1.32698 4.79818C1 5.43992 1 6.28 1 7.96016V16.3602C1 18.0403 1 18.8804 1.32698 19.5221C1.6146 20.0866 2.07354 20.5456 2.63803 20.8332C3.27976 21.1602 4.11984 21.1602 5.8 21.1602Z" stroke="black" stroke-width="2" stroke-linecap="round" stroke-linejoin="round"/>
</svg>
