<svg xmlns="http://www.w3.org/2000/svg" xmlns:svgjs="http://svgjs.com/svgjs" xmlns:xlink="http://www.w3.org/1999/xlink" width="288" height="288"><svg xmlns="http://www.w3.org/2000/svg" width="288" height="288" fill="none" viewBox="0 0 20 19"><path stroke="#f4e3cf" stroke-linecap="round" stroke-linejoin="round" stroke-width="1.667" d="M7.49935 17.1797V11.013C7.49935 10.5463 7.49935 10.313 7.59018 10.1347C7.67007 9.97789 7.79756 9.85041 7.95436 9.77052C8.13262 9.67969 8.36598 9.67969 8.83269 9.67969H11.166C11.6327 9.67969 11.8661 9.67969 12.0443 9.77052C12.2011 9.85041 12.3286 9.97789 12.4085 10.1347C12.4994 10.313 12.4994 10.5463 12.4994 11.013V17.1797M1.66602 7.59635L9.19935 1.94635C9.48623 1.73119 9.62968 1.62361 9.78721 1.58214C9.92627 1.54554 10.0724 1.54554 10.2115 1.58214C10.369 1.62361 10.5125 1.73119 10.7994 1.94635L18.3327 7.59635M3.33269 6.34635V14.513C3.33269 15.4464 3.33269 15.9132 3.51434 16.2697C3.67413 16.5833 3.9291 16.8382 4.2427 16.998C4.59922 17.1797 5.06593 17.1797 5.99935 17.1797H13.9994C14.9328 17.1797 15.3995 17.1797 15.756 16.998C16.0696 16.8382 16.3246 16.5833 16.4844 16.2697C16.666 15.9132 16.666 15.4464 16.666 14.513V6.34635L11.5994 2.54635C11.0256 2.11603 10.7387 1.90087 10.4236 1.81793C10.1455 1.74472 9.85319 1.74472 9.57507 1.81793C9.26 1.90087 8.97312 2.11603 8.39935 2.54635L3.33269 6.34635Z" class="colorStroke531422 svgStroke"/></svg></svg>