<svg width="22" height="21" viewBox="0 0 22 21" fill="none" xmlns="http://www.w3.org/2000/svg">
<path d="M8 19.6797V12.2797C8 11.7196 8 11.4396 8.109 11.2257C8.20487 11.0375 8.35785 10.8846 8.54601 10.7887C8.75993 10.6797 9.03995 10.6797 9.6 10.6797H12.4C12.9601 10.6797 13.2401 10.6797 13.454 10.7887C13.6422 10.8846 13.7951 11.0375 13.891 11.2257C14 11.4396 14 11.7196 14 12.2797V19.6797M1 8.17969L10.04 1.39969C10.3843 1.14149 10.5564 1.0124 10.7454 0.962632C10.9123 0.918706 11.0877 0.918706 11.2546 0.962633C11.4436 1.0124 11.6157 1.14149 11.96 1.39969L21 8.17969M3 6.67969V16.4797C3 17.5998 3 18.1598 3.21799 18.5877C3.40974 18.964 3.7157 19.27 4.09202 19.4617C4.51985 19.6797 5.0799 19.6797 6.2 19.6797H15.8C16.9201 19.6797 17.4802 19.6797 17.908 19.4617C18.2843 19.27 18.5903 18.964 18.782 18.5877C19 18.1598 19 17.5998 19 16.4797V6.67969L12.92 2.11969C12.2315 1.6033 11.8872 1.34511 11.5091 1.24558C11.1754 1.15772 10.8246 1.15772 10.4909 1.24558C10.1128 1.34511 9.76852 1.6033 9.08 2.11969L3 6.67969Z" stroke="#F4E3CF" stroke-width="1.66667" stroke-linecap="round" stroke-linejoin="round"/>
</svg>
