<svg width="30" height="24" viewBox="0 0 30 24" fill="none" xmlns="http://www.w3.org/2000/svg">
<path d="M1.66797 5.33398L12.5545 12.9546C13.4361 13.5717 13.8769 13.8802 14.3563 13.9997C14.7798 14.1053 15.2228 14.1053 15.6463 13.9997C16.1257 13.8802 16.5665 13.5717 17.4481 12.9546L28.3346 5.33398M8.06797 22.6673H21.9346C24.1748 22.6673 25.2949 22.6673 26.1506 22.2313C26.9032 21.8479 27.5152 21.2359 27.8987 20.4833C28.3346 19.6276 28.3346 18.5075 28.3346 16.2673V7.73398C28.3346 5.49377 28.3346 4.37367 27.8987 3.51802C27.5152 2.76537 26.9032 2.15345 26.1506 1.76996C25.2949 1.33398 24.1748 1.33398 21.9346 1.33398H8.06797C5.82776 1.33398 4.70765 1.33398 3.85201 1.76996C3.09936 2.15345 2.48744 2.76537 2.10394 3.51802C1.66797 4.37367 1.66797 5.49377 1.66797 7.73398V16.2673C1.66797 18.5075 1.66797 19.6276 2.10394 20.4833C2.48744 21.2359 3.09936 21.8479 3.85201 22.2313C4.70765 22.6673 5.82776 22.6673 8.06797 22.6673Z" stroke="white" stroke-width="2" stroke-linecap="round" stroke-linejoin="round"/>
</svg>
