<svg width="20" height="16" viewBox="0 0 20 16" fill="none" xmlns="http://www.w3.org/2000/svg">
<path d="M1.66602 4.12891L8.47012 8.89177C9.02109 9.27746 9.29658 9.4703 9.59624 9.545C9.86093 9.61098 10.1378 9.61098 10.4025 9.545C10.7021 9.4703 10.9776 9.27746 11.5286 8.89178L18.3327 4.12891M5.66602 14.9622H14.3327C15.7328 14.9622 16.4329 14.9622 16.9677 14.6898C17.4381 14.4501 17.8205 14.0676 18.0602 13.5972C18.3327 13.0624 18.3327 12.3624 18.3327 10.9622V5.62891C18.3327 4.22877 18.3327 3.52871 18.0602 2.99393C17.8205 2.52352 17.4381 2.14107 16.9677 1.90139C16.4329 1.62891 15.7328 1.62891 14.3327 1.62891H5.66602C4.26588 1.62891 3.56582 1.62891 3.03104 1.90139C2.56063 2.14107 2.17818 2.52352 1.9385 2.99393C1.66602 3.52871 1.66602 4.22877 1.66602 5.62891V10.9622C1.66602 12.3624 1.66602 13.0624 1.9385 13.5972C2.17818 14.0676 2.56063 14.4501 3.03104 14.6898C3.56582 14.9622 4.26588 14.9622 5.66602 14.9622Z" stroke="#667085" stroke-width="1.66667" stroke-linecap="round" stroke-linejoin="round"/>
</svg>
