<svg width="28" height="28" viewBox="0 0 28 28" fill="none" xmlns="http://www.w3.org/2000/svg">
<path d="M8.6737 9.80447C9.6017 11.7373 10.8667 13.5488 12.4689 15.1509C14.071 16.753 15.8825 18.0181 17.8153 18.9461C17.9816 19.0259 18.0647 19.0658 18.1699 19.0965C18.5437 19.2054 19.0027 19.1272 19.3193 18.9005C19.4083 18.8367 19.4846 18.7605 19.637 18.6081C20.1031 18.1419 20.3362 17.9089 20.5706 17.7565C21.4544 17.1818 22.5938 17.1818 23.4777 17.7565C23.7121 17.9089 23.9451 18.1419 24.4113 18.6081L24.6711 18.8679C25.3797 19.5765 25.734 19.9308 25.9265 20.3113C26.3092 21.068 26.3092 21.9617 25.9265 22.7185C25.734 23.099 25.3797 23.4533 24.6711 24.1619L24.4609 24.372C23.7548 25.0782 23.4017 25.4313 22.9216 25.701C22.389 26.0002 21.5616 26.2153 20.9507 26.2135C20.4001 26.2119 20.0238 26.1051 19.2712 25.8915C15.2267 24.7435 11.4102 22.5775 8.22621 19.3936C5.04224 16.2096 2.87627 12.3931 1.72831 8.34858C1.5147 7.59598 1.4079 7.21969 1.40626 6.66909C1.40444 6.05813 1.61959 5.23081 1.91882 4.69813C2.18848 4.21809 2.54157 3.86501 3.24773 3.15884L3.45791 2.94866C4.1665 2.24007 4.52079 1.88578 4.9013 1.69332C5.65805 1.31056 6.55174 1.31056 7.30848 1.69332C7.68899 1.88578 8.04329 2.24007 8.75188 2.94866L9.0117 3.20849C9.47785 3.67463 9.71091 3.9077 9.8633 4.14207C10.438 5.02593 10.438 6.16537 9.8633 7.04922C9.71092 7.28359 9.47785 7.51666 9.0117 7.9828C8.85929 8.13522 8.78308 8.21143 8.71929 8.30051C8.49261 8.61708 8.41434 9.0761 8.52331 9.4499C8.55397 9.55509 8.59388 9.63822 8.6737 9.80447Z" stroke="white" stroke-width="2" stroke-linecap="round" stroke-linejoin="round"/>
</svg>
