<svg width="16" height="18" viewBox="0 0 16 18" fill="none" xmlns="http://www.w3.org/2000/svg">
<path d="M14.6673 16.1797C14.6673 15.0167 14.6673 14.4352 14.5238 13.9621C14.2006 12.8967 13.3669 12.0631 12.3016 11.7399C11.8284 11.5964 11.247 11.5964 10.084 11.5964H5.91732C4.75435 11.5964 4.17286 11.5964 3.6997 11.7399C2.63436 12.0631 1.80068 12.8967 1.47752 13.9621C1.33398 14.4352 1.33398 15.0167 1.33398 16.1797M11.7507 4.92969C11.7507 7.00076 10.0717 8.67969 8.00065 8.67969C5.92958 8.67969 4.25065 7.00076 4.25065 4.92969C4.25065 2.85862 5.92958 1.17969 8.00065 1.17969C10.0717 1.17969 11.7507 2.85862 11.7507 4.92969Z" stroke="#F4E3CF" stroke-width="1.66667" stroke-linecap="round" stroke-linejoin="round"/>
</svg>
